# xmcd
#
# Track frame offsets:
#	150
#	24598
#	50837
#	89773
#	114451
#	156164
#	182009
#	210954
#	240290
#
# Disc length: 3505 seconds
#
# Revision: 1
# Processed by: cddbd v1.5.2PL0 Copyright (c) Steve Scherf et al.
# Submitted via: audiograbber 1.83.01
#
DISCID=700daf09
DTITLE=Ruins - Place Of No Pity
DYEAR=2013
DGENRE=Black Metal
TTITLE0=Inhabit the twilight
TTITLE1=A lesson in ruthlessness
TTITLE2=Death lends the ultimate touch
TTITLE3=Winters will
TTITLE4=Place of no pity
TTITLE5=Desolation
TTITLE6=Let them perish
TTITLE7=Oath
TTITLE8=Merciless
EXTD=
EXTT0=
EXTT1=
EXTT2=
EXTT3=
EXTT4=
EXTT5=
EXTT6=
EXTT7=
EXTT8=
PLAYORDER=
